<svg id="Layer_1" data-name="Layer 1" xmlns="http://www.w3.org/2000/svg" viewBox="0 0 180 180"><title>Like-on-Facebook</title><path d="M134.6,99.05a.16.16,0,0,0,0-.07,13.21,13.21,0,0,0,2.05-5.48c1-7.25-5.48-10.17-9.36-11.92A42.48,42.48,0,0,0,110.26,78c-1.15,0-2.33,0-3.52.15-2.07.17-3.39-.35-4.08-1.58-1-1.83-.5-4.82.57-6.55,3-4.8,9.29-17,4.13-26.3-4.21-7.62-9.31-8.22-10.77-8.22-2.21,0-3.8,1.08-4,2.68a14.12,14.12,0,0,0,0,1.74c.09,2.31.24,6.17-2.05,9.12a29.26,29.26,0,0,0-3.46,6.78c-1.63,3.94-3.47,8.4-7.21,11.38-7,5.52-8.17,9.35-10.61,17.09-1.51,4.81-2.82,5.24-4.82,5.9l-.87.29a7,7,0,0,1-1.24.27V86.06H30.41v53.21h32v-3a48.58,48.58,0,0,1,13.89,4.38,24.08,24.08,0,0,0,3.37,1.36A72.16,72.16,0,0,0,97.27,144a92,92,0,0,0,12.38-.79c8.52-1.26,13.2-3,15.67-5.86A12,12,0,0,0,128.2,130c0-.27.06-.61.09-.82a11.58,11.58,0,0,0,4.79-6.66c1.42-4.36.83-6.62.27-8a15.93,15.93,0,0,0,3.49-8.45A7.91,7.91,0,0,0,134.6,99.05ZM33.93,89.58H58.84v46.17H33.93Zm99.42,16a12.53,12.53,0,0,1-3.16,7.19,2.47,2.47,0,0,0-.19,2.85c.33.72.94,2.06-.26,5.77-.81,2.48-1.45,3.34-3.83,5.13-1,.75-1.11,2-1.21,3.12a8.53,8.53,0,0,1-2,5.42c-1.82,2.1-6.11,3.59-13.52,4.68a86.55,86.55,0,0,1-11.87.75,68.85,68.85,0,0,1-16.75-1.83,24.46,24.46,0,0,1-2.81-1.16,51.71,51.71,0,0,0-15.35-4.74V94.28a11.51,11.51,0,0,0,2.45-.52l.76-.26c2.94-1,5.18-2.12,7.11-8.29,2.4-7.6,3.29-10.44,9.4-15.29,4.46-3.54,6.49-8.45,8.28-12.78a27.82,27.82,0,0,1,3-6c3.09-4,2.9-8.81,2.8-11.42,0-.26,0-.51,0-.72a2.87,2.87,0,0,1,.48,0c2,0,5.09,1.68,7.69,6.4,4.26,7.71-1.41,18.48-4,22.75-1.64,2.66-2.4,7-.65,10.11,1.36,2.45,3.89,3.67,7.45,3.37a38.37,38.37,0,0,1,18.85,3.17c5.17,2.32,7.86,4.32,7.32,8.22a9.89,9.89,0,0,1-1.56,4.13,4.12,4.12,0,0,0-.78,1.85A3.11,3.11,0,0,0,132,101.4,4.47,4.47,0,0,1,133.35,105.58Z"/><path d="M46.67,116.44A7.34,7.34,0,1,0,54,123.77,7.34,7.34,0,0,0,46.67,116.44Zm0,11.15a3.82,3.82,0,1,1,3.81-3.82A3.82,3.82,0,0,1,46.67,127.59Z"/></svg>