<svg id="Layer_1" data-name="Layer 1" xmlns="http://www.w3.org/2000/svg" viewBox="0 0 180 180"><title>Share-on-Facebook</title><path d="M115.73,143.21a23.67,23.67,0,0,1-23.64-23.65,22.82,22.82,0,0,1,.53-4.9L60,98.9a17.62,17.62,0,1,1-.93-26.45L91.75,57.36c-.06-.61-.09-1.18-.09-1.74a19.35,19.35,0,1,1,27.15,17.7l1.11,23a23.64,23.64,0,0,1-4.19,46.91Zm-56.5-48.6,37.52,18.14-.39,1.42A20.12,20.12,0,1,0,118,99.58l-1.48-.17-1.38-28.47,1.22-.45a15.91,15.91,0,1,0-21-12.36l.21,1.32L58.45,76.63l-.86-.82a14.13,14.13,0,1,0,.76,19.77Zm40.65,12.52-38-18.38L62,87.52a13.41,13.41,0,0,0,.08-1.43,14.06,14.06,0,0,0-.24-2.5l-.24-1.33,36.82-17,.87,1a15.7,15.7,0,0,0,8.2,4.84l1.29.3,1.41,28.86-1.23.44a20.23,20.23,0,0,0-8.16,5.5ZM65.56,86.63l33.5,16.2a23.74,23.74,0,0,1,7.46-5l-1.16-23.69a19.25,19.25,0,0,1-7.81-4.62L65.47,84.33a15.08,15.08,0,0,1,.1,1.76C65.57,86.27,65.56,86.45,65.56,86.63Z"/></svg>