<svg id="Layer_1" data-name="Layer 1" xmlns="http://www.w3.org/2000/svg" viewBox="0 0 180 180"><title>Gift Card</title><path d="M16.62,68.45H8.26V48.74A13.43,13.43,0,0,1,21.67,35.33H41.38v8.36a10.73,10.73,0,0,0-5.13,2.65A9.93,9.93,0,0,0,33.77,50a9.65,9.65,0,0,0-.42,6.12,24.22,24.22,0,0,0,1.77,4.75c.46,1,1,1.88,1.46,2.81C35.44,63,34.32,62.44,33.25,62a27.88,27.88,0,0,0-3.62-1.36,9.94,9.94,0,0,0-10.17,2.53,10.39,10.39,0,0,0-2.84,5.33ZM44.28,45.69v0ZM36.05,95.1a10,10,0,0,1-2.54-10.17,26.9,26.9,0,0,1,1.38-3.62c.48-1.07,1-2.19,1.67-3.33-.93.5-1.86,1-2.81,1.46A24.94,24.94,0,0,1,29,81.22a10.25,10.25,0,0,1-2.44.3,9.75,9.75,0,0,1-3.69-.73,10,10,0,0,1-3.61-2.48,10.63,10.63,0,0,1-2.64-5.13H8.26v57.56a13.43,13.43,0,0,0,13.41,13.41H41.38V98a11,11,0,0,1-2.3-.75A10.46,10.46,0,0,1,36.05,95.1ZM51.44,46.54a10,10,0,0,1,2.89,5.59A10.25,10.25,0,0,1,54,56.7a27.06,27.06,0,0,1-1.37,3.62c-.49,1.08-1.06,2.19-1.68,3.34.93-.5,1.86-1,2.81-1.47a24.77,24.77,0,0,1,4.76-1.77,9.72,9.72,0,0,1,6.12.42,9.92,9.92,0,0,1,3.61,2.49,10.55,10.55,0,0,1,2.64,5.12H171V48.74a13.42,13.42,0,0,0-13.4-13.41H46.11v8.36a10.81,10.81,0,0,1,2.3.74A10.3,10.3,0,0,1,51.44,46.54ZM70.88,73.18a11.12,11.12,0,0,1-.75,2.31,10.74,10.74,0,0,1-2.1,3,10.15,10.15,0,0,1-5.6,2.89,8.9,8.9,0,0,1-1.46.12A11.26,11.26,0,0,1,57.86,81a26,26,0,0,1-3.62-1.36c-1.07-.48-2.18-1.05-3.33-1.67.5.93,1,1.85,1.46,2.8a24.7,24.7,0,0,1,1.78,4.75,9.76,9.76,0,0,1-.43,6.13,10,10,0,0,1-2.48,3.61,10.63,10.63,0,0,1-5.13,2.64v46.21H157.6A13.42,13.42,0,0,0,171,130.74V73.18ZM48,70.81l.44.28c1,.63,2,1.25,3,1.84a47.11,47.11,0,0,0,4.67,2.43,21.11,21.11,0,0,0,3,1.14,5.62,5.62,0,0,0,2.49.24,5.44,5.44,0,0,0,3-1.57,5.52,5.52,0,0,0,1.15-1.67,6.16,6.16,0,0,0,.5-1.6l.09-.65h0l-.1-1.46a5.88,5.88,0,0,0-1.57-3.25,5.26,5.26,0,0,0-1.91-1.31A5,5,0,0,0,59.64,65a19.72,19.72,0,0,0-3.83,1.44c-1.3.63-2.59,1.31-3.86,2-1,.56-2,1.16-3,1.78ZM38.16,51.72a5,5,0,0,0-.23,3.2,20.29,20.29,0,0,0,1.45,3.84c.63,1.3,1.31,2.58,2,3.86.56,1,1.16,2,1.77,3l.58.91.28-.44c.63-1,1.25-2,1.84-3a50.41,50.41,0,0,0,2.43-4.67,21.52,21.52,0,0,0,1.14-3,5.81,5.81,0,0,0,.24-2.5,5.44,5.44,0,0,0-1.57-3,5.84,5.84,0,0,0-1.67-1.15,5.77,5.77,0,0,0-1.6-.49l-1.4-.11-.69.1a5.91,5.91,0,0,0-3.27,1.57A5.18,5.18,0,0,0,38.16,51.72ZM36,68.7a50.5,50.5,0,0,0-4.67-2.43,21.34,21.34,0,0,0-3-1.13,5.53,5.53,0,0,0-2.5-.24,5.36,5.36,0,0,0-3,1.56,5.69,5.69,0,0,0-1.15,1.68,6.21,6.21,0,0,0-.5,1.59l-.1,1.41.1.7a5.88,5.88,0,0,0,1.57,3.25,5.22,5.22,0,0,0,1.91,1.31,5.06,5.06,0,0,0,3.21.23,20.91,20.91,0,0,0,3.84-1.44c1.3-.64,2.58-1.32,3.86-2,1-.57,2-1.17,3-1.78l.91-.58c-.15-.09-.3-.18-.44-.28C38,69.91,37,69.29,36,68.7ZM49.33,89.92a5,5,0,0,0,.23-3.2,20.14,20.14,0,0,0-1.44-3.84c-.64-1.3-1.32-2.59-2-3.86-.56-1-1.16-2-1.77-3-.19-.31-.38-.61-.58-.91l-.28.44c-.63,1-1.25,2-1.84,3a48.08,48.08,0,0,0-2.43,4.67,22.07,22.07,0,0,0-1.14,3,5.63,5.63,0,0,0-.23,2.5,5.36,5.36,0,0,0,1.56,3,5.87,5.87,0,0,0,1.67,1.16,5.77,5.77,0,0,0,1.6.49l.65.09h0l1.47-.1A5.85,5.85,0,0,0,48,91.83,5.26,5.26,0,0,0,49.33,89.92Z"/></svg>