<svg id="Layer_1" data-name="Layer 1" xmlns="http://www.w3.org/2000/svg" viewBox="0 0 180 180"><title>Follow-on-ig</title><path d="M90.75,75.74a19.19,19.19,0,1,0,19.19,19.18A19.2,19.2,0,0,0,90.75,75.74Zm0,34.85a15.67,15.67,0,1,1,15.67-15.67A15.68,15.68,0,0,1,90.75,110.59Z"/><path d="M119.16,45.57H81.39V44.22a4.72,4.72,0,0,0,4.72-4.51A4.72,4.72,0,0,0,81.2,35.2H66.79a4.72,4.72,0,0,0-4.9,4.51,4.71,4.71,0,0,0,4.71,4.51v1.35H62.35a21,21,0,0,0-21,20.95v56.81a21,21,0,0,0,21,21h56.81a21,21,0,0,0,21-21V66.52A21,21,0,0,0,119.16,45.57Zm17.43,77.76a17.45,17.45,0,0,1-17.43,17.43H62.35a17.45,17.45,0,0,1-17.44-17.43V66.52A17.45,17.45,0,0,1,62.35,49.09h7.77V40.7H66.79c-.75,0-1.38-.45-1.38-1s.64-1,1.38-1H81.2c.74,0,1.39.46,1.39,1s-.64,1-1.39,1H77.87v8.39h41.29a17.45,17.45,0,0,1,17.43,17.43Z"/><path d="M90.75,67.4a27.5,27.5,0,0,0-16.47,5.48L74,72.56a3.12,3.12,0,0,0-4.32,0L67.49,74.7a3,3,0,0,0,0,4.32l.47.47A27.53,27.53,0,1,0,90.75,67.4Zm0,51.53a24,24,0,0,1-24-24,23.79,23.79,0,0,1,4.92-14.55l1-1.28L70.3,76.86l1.49-1.49L74,77.62l1.24-1a24,24,0,1,1,15.47,42.35Z"/><path d="M118.77,52h-3.4a3.43,3.43,0,0,0-3.43,3.42v8.44a3.44,3.44,0,0,0,3.43,3.43H129.9a3.33,3.33,0,0,0,2.55-1.19,2.87,2.87,0,0,0,.6-2.39A14.59,14.59,0,0,0,118.77,52Zm-3.31,11.86-.09-8.34h3.4a11.07,11.07,0,0,1,10.69,8.25Z"/></svg>