<svg id="Layer_1" data-name="Layer 1" xmlns="http://www.w3.org/2000/svg" xmlns:xlink="http://www.w3.org/1999/xlink" viewBox="0 0 250 250"><defs><style>.cls-1{fill:url(#linear-gradient);}</style><linearGradient id="linear-gradient" x1="71.87" y1="215.49" x2="177.15" y2="33.14" gradientUnits="userSpaceOnUse"><stop offset="0" stop-color="#6d6e72"/><stop offset="0.25" stop-color="#c0c1c3"/><stop offset="0.5" stop-color="#6d6e72"/><stop offset="0.75" stop-color="#c0c1c3"/><stop offset="1" stop-color="#5b5d5e"/></linearGradient></defs><title>Silver</title><path class="cls-1" d="M228.3,122.45A102.88,102.88,0,0,0,189,41.63,71.08,71.08,0,0,0,169.72,29.5a103.23,103.23,0,0,0-87.52-.86l.27-.17C73.23,31.89,64,38,55.63,46.11a102.74,102.74,0,0,0-27,113.49c13.93,41.65,53.55,74,101.8,70.85,44.19-2.91,76.3-30.21,89.93-68.51A102.29,102.29,0,0,0,228.3,122.45ZM58.88,65.73a14.61,14.61,0,0,0,3.21,6.82,5.18,5.18,0,0,1,1.29,5.38,9.76,9.76,0,0,0,4.44,11,4.22,4.22,0,0,1,2.29,3.21,9.54,9.54,0,0,0,5.28,7.13,6.47,6.47,0,0,1,3,3.22c1.84,5.53,6.28,7.91,11.16,9.79a19.43,19.43,0,0,0,6,1.32c4.12.2,6.2-.93,9.12-1.7A118.87,118.87,0,0,0,116.5,108c1.68-.63,2.31,0,3,1.23,1.34,2.49,3,6.22,4.28,8.75a4.13,4.13,0,0,1,0,2.62c-.7,3.33-1.29,5.44-2.24,8.7a120.79,120.79,0,0,0-4.27,19.15c-.29,2.18-.5,3.28-.69,6.55-.29,4.84.71,9.68,1.33,14.48q1.19,9.26,2.76,18.45c1.14,6.63,2.6,12.54,3.59,19.87.23,1.75.58,3.51.91,5.27-23,0-46.1-8.92-65-26.94C38.25,165.3,29.4,138.41,31.64,108c2-26.55,12.74-47.3,29.9-63.59-.19.46-.37.94-.52,1.41-1,3.17-2.27,6.33-2.63,9.58A35.46,35.46,0,0,0,58.88,65.73Zm121.79,25.6c-.38-2.33.88-2.67,2.21-3.3a9.15,9.15,0,0,0,4.67-9.73c-.51-2.23-.44-3.62,1.58-6a8.69,8.69,0,0,0,1.65-2.68c1.64-3.78,1.73-7.85,1.84-11.87.12-4.39-1.33-8.41-3-12.35,13.86,13.65,23.07,30.93,27,52.12,5.76,31.39-1.12,59.83-22.21,83.32-19,21.19-43.58,31.92-68.3,32.24.07-.3.14-.6.19-.91.91-6,1.73-12,2.74-18,.71-4.21,1.81-8.37,2.48-12.59.73-4.6,1.11-9.25,1.74-13.86a67.82,67.82,0,0,0,.13-21.23c-1.22-7.76-3.52-15.32-5.25-23-.44-2-1.51-4.22-.92-5.85,1.15-3.19,3.2-6.08,5.05-9a2.51,2.51,0,0,1,2.25-.5c3.7,1.11,7.27,2.77,11,3.52,4.15.82,8.53,2,12.7,1.17a21.67,21.67,0,0,0,8.24-3.17,23.86,23.86,0,0,0,2.88-2.46c2.32-2,2.71-5.49,5.31-7.32.72-.51,1.46-1,2.16-1.51C179.15,96.65,181.15,94.33,180.67,91.33Zm-50.28,16.28c-1.5,2.56-3.28,6.18-5,8.83-1.77-2.62-3.47-6.29-5-8.88a2,2,0,0,1,.35-2.09,28.89,28.89,0,0,1,4.76-5.27,34,34,0,0,1,4.58,5.17C131.06,106.7,130.69,107.1,130.39,107.61ZM125,21.2a101,101,0,0,1,57.65,18c.91.74,1.82,1.48,2.7,2.25a1.8,1.8,0,0,0-.42,1.33c0,.88.18,1.76.24,2.64A24,24,0,0,1,180,62.59,66.92,66.92,0,0,1,163.48,76.8c-3.91,2.5-7.86,5-11.62,7.66a117.67,117.67,0,0,0-10.45,8.29,31,31,0,0,0-5.85,7c-1.95,3.31-3.05,4.52-5.93,1.25a21.75,21.75,0,0,1-1.92-2.27,1.7,1.7,0,0,1-.14-1.39c1-2.21,2.24-4.35,3.22-6.57,2-4.46,3.32-7.68,3.79-12a18.12,18.12,0,0,0-.32-6.55c-1.21-4.45-1.92-6.77-4.89-9a6.1,6.1,0,0,0-6.06-1c-4.26,1.75-6.06,5.47-6.82,9.73a19.66,19.66,0,0,0,.84,11.5c1.54,4.32,3.24,8.59,5.06,12.79.89,2,1,2.93-.69,4.46-.32.29-.65.58-1,.84-2.34,1.76-3.76,1.92-4.88-.68-2.44-5.66-7.26-9.08-11.77-12.72-3.5-2.82-7.49-5-11.23-7.56-4.57-3.1-9.08-6.29-13.65-9.39C69.36,64.51,64.85,56.5,65.42,44.69c0-.71.23-2.42-.44-3.42.9-.79,1.82-1.56,2.76-2.33A100.93,100.93,0,0,1,125,21.2Z"/></svg>