<svg id="Layer_1" data-name="Layer 1" xmlns="http://www.w3.org/2000/svg" viewBox="0 0 180 180"><title>Place-an-order</title><path d="M138.54,47.91H42.39A12.85,12.85,0,0,0,29.56,60.74v58a12.85,12.85,0,0,0,12.83,12.83h96.15a12.84,12.84,0,0,0,12.82-12.83v-58A12.84,12.84,0,0,0,138.54,47.91ZM148,118.74a9.49,9.49,0,0,1-9.48,9.48H42.39a9.49,9.49,0,0,1-9.48-9.48v-37H148Zm0-40.38H32.91V71.17H148Zm0-10.54H32.91V60.74a9.49,9.49,0,0,1,9.48-9.48h96.15A9.49,9.49,0,0,1,148,60.74Z"/><path d="M65.59,102H37.64v17h28Zm-3.35,13.71H41V105.35H62.24Z"/></svg>