<svg id="Layer_1" data-name="Layer 1" xmlns="http://www.w3.org/2000/svg" viewBox="0 0 180 180"><title>Review-products</title><path d="M115.7,39.24H65.41A20.57,20.57,0,0,0,44.86,59.79v50.28a20.58,20.58,0,0,0,20.55,20.56h1.48v19.61L91.3,130.63h24.4a20.57,20.57,0,0,0,20.54-20.56V59.79A20.57,20.57,0,0,0,115.7,39.24Zm17,70.83a17,17,0,0,1-17,17H90.06L70.41,142.9V127.11h-5a17.05,17.05,0,0,1-17-17V59.79a17,17,0,0,1,17-17H115.7a17,17,0,0,1,17,17Z"/><path d="M113.93,76.78H108a4.42,4.42,0,0,0-4.41,4.41v5.9A4.42,4.42,0,0,0,108,91.5h5.89a4.42,4.42,0,0,0,4.41-4.41v-5.9A4.42,4.42,0,0,0,113.93,76.78Zm.89,10.31a.89.89,0,0,1-.89.89H108a.89.89,0,0,1-.89-.89v-5.9a.89.89,0,0,1,.89-.89h5.89a.89.89,0,0,1,.89.89Z"/><path d="M93.5,76.78H87.6a4.42,4.42,0,0,0-4.41,4.41v5.9A4.42,4.42,0,0,0,87.6,91.5h5.9a4.42,4.42,0,0,0,4.41-4.41v-5.9A4.42,4.42,0,0,0,93.5,76.78Zm.89,10.31a.89.89,0,0,1-.89.89H87.6a.89.89,0,0,1-.89-.89v-5.9a.89.89,0,0,1,.89-.89h5.9a.89.89,0,0,1,.89.89Z"/><path d="M73.06,76.78H67.17a4.42,4.42,0,0,0-4.41,4.41v5.9a4.42,4.42,0,0,0,4.41,4.41h5.89a4.42,4.42,0,0,0,4.41-4.41v-5.9A4.42,4.42,0,0,0,73.06,76.78ZM74,87.09a.89.89,0,0,1-.89.89H67.17a.9.9,0,0,1-.9-.89v-5.9a.9.9,0,0,1,.9-.89h5.89a.89.89,0,0,1,.89.89Z"/></svg>