<svg id="Layer_1" data-name="Layer 1" xmlns="http://www.w3.org/2000/svg" viewBox="0 0 180 180"><title>Celebrate-bday</title><path d="M66.79,45.54a6.94,6.94,0,0,0,2.35-.42,4.9,4.9,0,0,0,3.49-4.23c.15-3.91-2.66-10-4.38-13.38a2.81,2.81,0,0,0-2.27-2c-.74,0-1.7.24-2.42,1.78h0C59,37,60.4,41.52,62.34,43.64A6,6,0,0,0,66.79,45.54ZM65.9,30.3c2.21,4.53,3.47,8.38,3.39,10.46,0,.44-.55.94-1.3,1.22a3,3,0,0,1-3.18-.6C64.2,40.72,62.6,38.05,65.9,30.3Z"/><path d="M90.16,45.54a7,7,0,0,0,2.36-.42A4.89,4.89,0,0,0,96,40.89c.15-3.9-2.66-10-4.38-13.38a2.78,2.78,0,0,0-2.27-2c-.75,0-1.7.24-2.42,1.78h0C82.41,37,83.77,41.53,85.72,43.64A6,6,0,0,0,90.16,45.54ZM89.27,30.3c2.22,4.53,3.47,8.38,3.39,10.46,0,.44-.55.94-1.3,1.22a3,3,0,0,1-3.18-.6C87.58,40.72,86,38.05,89.27,30.3Z"/><path d="M113.54,45.54a7,7,0,0,0,2.35-.42,4.9,4.9,0,0,0,3.49-4.23c.15-3.91-2.66-10-4.39-13.38a2.78,2.78,0,0,0-2.27-2c-.72,0-1.69.24-2.41,1.78h0c-4.52,9.63-3.16,14.17-1.22,16.29A6,6,0,0,0,113.54,45.54Zm-.89-15.24c2.21,4.53,3.46,8.38,3.39,10.46,0,.44-.56.94-1.31,1.22a3,3,0,0,1-3.17-.6C111,40.72,109.35,38.05,112.65,30.3Z"/><path d="M148.33,140.93h-6.82V91.49a12.84,12.84,0,0,0-12.83-12.83H115V48.37a1.67,1.67,0,0,0-3.34,0V78.66h-20V48.37a1.68,1.68,0,0,0-3.35,0V78.66h-20V48.37a1.67,1.67,0,0,0-3.34,0V78.66H51.23A12.84,12.84,0,0,0,38.4,91.49v49.44H32.92a1.68,1.68,0,0,0,0,3.35H148.33a1.68,1.68,0,0,0,0-3.35Zm-10.16,0H41.75V108.79a9.15,9.15,0,0,0,5.7,2.38h.21c3.24,0,6.54-3.33,9.82-9.89a5.27,5.27,0,0,1,3.72-2.53c2.21-.16,4.35,2.26,5.68,4.29,2.37,3.67,5.59,7.89,9.53,8,2.35.11,4.62-1.25,6.72-4,.6-.78,1.17-1.59,1.73-2.38,1.88-2.63,3.66-5.12,5.35-5.12h.06c1.21,0,3.39,1.31,7.06,7.29,2.32,3,4.76,4.5,7.27,4.5a5.44,5.44,0,0,0,.57,0c3.07-.28,5.83-2.73,8.2-7.31,1.09-2.11,2.81-4.65,4.75-4.78,1.76-.13,3.9,1.65,6.26,5.07,2.46,3.58,5.27,5.44,8.32,5.51h.2a9.26,9.26,0,0,0,5.27-1.81Zm0-37.27c-1.26,1.32-3.16,2.85-5.28,2.85h-.1c-1.93-.05-3.83-1.42-5.66-4.07-3.15-4.57-6.21-6.71-9.22-6.51-2.85.18-5.31,2.34-7.51,6.58-1.76,3.4-3.72,5.36-5.53,5.52s-3.69-1.64-4.79-3c-3.63-5.94-6.62-8.63-9.69-8.74-3.61-.15-5.82,3.11-8.25,6.53-.54.76-1.09,1.53-1.67,2.28-1.4,1.83-2.78,2.76-3.92,2.69-1.83-.08-4.07-2.21-6.87-6.53Q65.73,95.16,61,95.4a8.49,8.49,0,0,0-6.52,4.39c-3.73,7.45-6.17,8-6.88,8-2.08.07-4.16-1.86-5.86-3.58V91.49A9.49,9.49,0,0,1,51.23,82h77.45a9.5,9.5,0,0,1,9.49,9.48Z"/></svg>