<svg id="Layer_1" data-name="Layer 1" xmlns="http://www.w3.org/2000/svg" viewBox="0 0 180 180"><title>Artboard 1</title><path d="M85.38,72.41A19.77,19.77,0,1,0,65.61,52.64,19.8,19.8,0,0,0,85.38,72.41Zm0-36A16.26,16.26,0,1,1,69.13,52.64,16.27,16.27,0,0,1,85.38,36.39Z"/><path d="M69.17,138.43c-1.71,0-1.84-2.45-1.84-3.2V94.31H62.58c-3.15,0-5.71,3.07-5.71,6.82v23c0,2.62-1.47,5.44-4.7,5.44a5.38,5.38,0,0,1-5.29-5.44V96.53c0-9.42,5.26-16.26,12.5-16.26h52c7.25,0,12.5,6.84,12.5,16.26v6.27a23.31,23.31,0,0,1,3.52,1.7v-8c0-11.46-6.73-19.78-16-19.78h-52c-9.28,0-16,8.32-16,19.78v27.62a8.89,8.89,0,0,0,8.81,9c4.69,0,8.22-3.85,8.22-9v-23c0-1.76,1-3.3,2.2-3.3h1.22v37.4c0,4.64,2.7,6.72,5.36,6.72H98.6a24.83,24.83,0,0,1-2.94-3.52Z"/><path d="M113.9,101.26v-.13c0-3.75-2.56-6.82-5.71-6.82h-4.75V104.4a24.66,24.66,0,0,1,3.52-1.67v-4.9h1.22c1.18,0,2.21,1.54,2.21,3.3v.58A23.89,23.89,0,0,1,113.9,101.26Z"/><path d="M115.34,103.41a21.6,21.6,0,1,0,21.6,21.6A21.6,21.6,0,0,0,115.34,103.41Zm10.21,23h-8.17v9.4h-4v-9.4h-8.22v-3.64h8.22v-8.65h4v8.65h8.17Z"/></svg>